<svg width="16" height="16" viewBox="0 0 16 16" fill="none" xmlns="http://www.w3.org/2000/svg">
<path fill-rule="evenodd" clip-rule="evenodd" d="M15.7071 8.70711C16.0976 8.31658 16.0976 7.68342 15.7071 7.29289C15.3166 6.90237 14.6834 6.90237 14.2929 7.29289L9 12.5858L9 1C9 0.447715 8.55228 -3.2555e-07 8 -3.49691e-07C7.44771 -3.73832e-07 7 0.447715 7 1L7 12.5858L1.70711 7.29289C1.31658 6.90237 0.683417 6.90237 0.292893 7.29289C-0.0976318 7.68342 -0.0976318 8.31658 0.292893 8.70711L7.29289 15.7071C7.68342 16.0976 8.31658 16.0976 8.70711 15.7071L15.7071 8.70711Z" fill="url(#paint0_linear)"/>
<defs>
<linearGradient id="paint0_linear" x1="8" y1="17.5" x2="8" y2="-2.17981e-07" gradientUnits="userSpaceOnUse">
<stop stop-color="#268DFE"/>
<stop offset="1" stop-color="#26B2FE"/>
</linearGradient>
</defs>
</svg>
