<svg width="40" height="40" viewBox="0 0 40 40" fill="none" xmlns="http://www.w3.org/2000/svg">
<rect width="40" height="40" rx="20" fill="#101D42"/>
<mask id="mask0" mask-type="alpha" maskUnits="userSpaceOnUse" x="0" y="0" width="40" height="40">
<rect width="40" height="40" rx="20" fill="#101D42"/>
</mask>
<g mask="url(#mask0)">
<path d="M25.6309 29.4336C25.6309 29.4336 26.0025 29.9891 27.1176 29.712C28.2327 29.4349 28.9706 28.5997 30.2682 28.4145C31.5657 28.2293 33.6039 29.2484 33.6039 29.2484L32.2104 21.0943C32.2104 21.0943 32.2104 20.1671 30.1722 19.7967C28.134 19.4264 25.9093 20.0806 25.9093 20.0806L25.6309 29.4336Z" fill="#F57171"/>
<path d="M27.577 25.541C27.577 25.541 27.4851 26.1898 26.5579 27.4873C25.6307 28.7848 25.6307 29.4336 25.6307 29.4336L24.6116 23.8732C24.6116 23.8732 26.9255 23.0392 27.577 25.541Z" fill="#FFCECE"/>
<path d="M8.0249 15.5338C8.0249 15.5338 16.0871 14.6066 21.0907 14.2363C26.0943 13.866 25.8213 14.6066 26.2795 14.6999C26.7377 14.7932 27.577 25.541 27.577 25.541C27.577 25.541 24.148 24.5219 20.9975 24.8936C17.8469 25.2653 9.69277 26.6507 9.69277 26.6507C9.69277 26.6507 11.2687 20.0806 8.0249 15.5338Z" fill="#F57171"/>
<path d="M18.658 19.9498C18.5672 19.963 18.4762 19.975 18.3855 19.9854C18.2944 19.9958 18.2028 20.0048 18.1111 20.0123C17.3395 20.0792 16.7141 20.0406 16.255 19.9361C16.0395 19.8898 15.8525 19.8277 15.7046 19.7492L15.7898 20.4943L15.7958 20.5467L15.8017 20.5991L15.8172 20.7342C16.151 21.0114 17.1843 21.1841 18.5051 21.0331C19.826 20.8821 20.7937 20.4806 21.0563 20.1352L21.0409 20.0002L21.0349 19.9478L21.0289 19.8954L20.9437 19.1503C20.8164 19.2609 20.6467 19.3644 20.4455 19.4585C20.022 19.6632 19.4226 19.8411 18.658 19.9498Z" fill="#FFCECE"/>
<path d="M15.5476 18.3754L15.6328 19.1205L15.6388 19.1729L15.6448 19.2253L15.6602 19.3604C15.9696 19.6173 16.8799 19.7846 18.0633 19.6873C18.0754 19.6863 18.0877 19.685 18.0999 19.684C18.1342 19.681 18.1684 19.6781 18.2031 19.6746C18.2511 19.67 18.2994 19.6649 18.3482 19.6593C18.3969 19.6537 18.4451 19.6478 18.4929 19.6416C18.5275 19.6371 18.5615 19.6323 18.5956 19.6274C18.6077 19.6257 18.62 19.6241 18.632 19.6224C19.8069 19.45 20.6559 19.0816 20.8993 18.7615L20.8839 18.6264L20.8779 18.574L20.8719 18.5216L20.7867 17.7765C20.3168 18.1851 19.2599 18.4936 18.2284 18.6115C17.1969 18.7294 16.0977 18.6674 15.5476 18.3754Z" fill="#FFCECE"/>
<path d="M20.6972 17.113C20.5281 16.6758 19.5732 16.3347 17.9894 16.5158C16.4096 16.6964 15.5571 17.2418 15.4872 17.7052C15.4801 17.7216 15.4755 17.7392 15.4777 17.7583L15.4837 17.8107L15.5053 17.9999C15.838 18.2762 16.8641 18.449 18.1931 18.2971C19.522 18.1451 20.4827 17.7452 20.7444 17.401L20.7228 17.2117L20.7168 17.1594C20.7148 17.1418 20.7071 17.1266 20.6972 17.113Z" fill="#FFCECE"/>
<path d="M15.8604 21.1114L15.9586 21.9707C15.9605 21.9877 15.9669 22.0032 15.9762 22.0165C16.1586 22.5153 17.3095 22.7716 18.6859 22.6143C20.0592 22.4573 21.121 21.9496 21.1904 21.424C21.197 21.4079 21.1998 21.3901 21.1977 21.3718L21.0995 20.5127C20.7011 20.8672 19.8357 21.209 18.5422 21.3569C17.2486 21.5048 16.3284 21.3669 15.8604 21.1114Z" fill="#FFCECE"/>
<path d="M12.3082 47.5625C12.2584 47.5625 12.2104 47.5442 12.1732 47.511C12.1361 47.4779 12.1124 47.4322 12.1068 47.3827L7.86821 14.5309C7.86169 14.4776 7.87648 14.4238 7.90938 14.3813C7.94228 14.3388 7.99062 14.311 8.04391 14.3039C8.07055 14.3003 8.09763 14.302 8.12361 14.3088C8.14959 14.3157 8.17395 14.3277 8.1953 14.344C8.21665 14.3603 8.23456 14.3807 8.24802 14.404C8.26147 14.4272 8.27019 14.4529 8.27368 14.4796L12.5082 47.3341C12.5116 47.3608 12.5096 47.388 12.5024 47.414C12.4951 47.44 12.4828 47.4642 12.466 47.4854C12.4493 47.5065 12.4285 47.5241 12.4049 47.5371C12.3813 47.5501 12.3553 47.5583 12.3285 47.5612L12.3082 47.5625Z" fill="#637F9A"/>
</g>
</svg>
