<svg width="57" height="58" viewBox="0 0 57 58" fill="none" xmlns="http://www.w3.org/2000/svg">
<path fill-rule="evenodd" clip-rule="evenodd" d="M12.6661 53.1127C17.3531 56.2992 22.8633 57.9999 28.5001 57.9999C36.0557 57.9906 43.2999 54.9325 48.6426 49.496C53.9854 44.0595 56.9908 36.6884 57.0001 28.9999C57.0001 23.2641 55.3287 17.6576 52.1968 12.8886C49.0655 8.11954 44.6143 4.40226 39.4063 2.20743C34.1988 0.0126065 28.4683 -0.561612 22.94 0.55704C17.4117 1.67618 12.3336 4.4379 8.34771 8.49405C4.36187 12.5497 1.64752 17.7167 0.547907 23.3422C-0.552191 28.9677 0.0122625 34.7987 2.16949 40.0976C4.32672 45.3969 7.97955 49.9262 12.6661 53.1127ZM13.5875 6.29044C18.0015 3.28946 23.1915 1.68741 28.5001 1.68741C35.6168 1.69229 42.44 4.57267 47.4722 9.69376C52.5045 14.8149 55.3345 21.7582 55.3419 28.9999C55.3419 34.4018 53.7676 39.6825 50.8179 44.1737C47.8687 48.6654 43.6768 52.1664 38.772 54.2333C33.8672 56.3007 28.4703 56.8417 23.2637 55.7875C18.0567 54.7338 13.274 52.1327 9.52007 48.3129C5.76617 44.4931 3.21002 39.6264 2.17437 34.3285C1.13873 29.0302 1.66998 23.5385 3.70172 18.5478C5.73345 13.557 9.1734 9.29142 13.5875 6.29044ZM21.292 24.5619C21.4454 24.7089 21.6485 24.7914 21.8594 24.7914L21.856 24.788C22.0225 24.7875 22.1851 24.7362 22.3223 24.641C22.46 24.5458 22.566 24.4106 22.6275 24.2533C22.6885 24.0956 22.7017 23.9233 22.6656 23.7582C22.6446 23.6635 22.6085 23.5741 22.5586 23.4931C22.5211 23.432 22.4756 23.3764 22.4239 23.3266C16.775 17.9233 10.6168 23.2499 10.5552 23.3056C10.5044 23.3505 10.4595 23.4013 10.421 23.4565C10.3902 23.5004 10.3638 23.5478 10.3419 23.5971C10.3018 23.6874 10.2769 23.7851 10.2701 23.8857C10.2544 24.1098 10.3267 24.331 10.4717 24.5009C10.4898 24.5219 10.5084 24.5419 10.5284 24.5609C10.5455 24.5775 10.563 24.5932 10.5816 24.6083C10.6319 24.6488 10.6866 24.6835 10.7447 24.7113C10.837 24.7558 10.9376 24.7831 11.0416 24.7909C11.1587 24.7997 11.2745 24.7826 11.3829 24.7431C11.4786 24.7079 11.5679 24.6552 11.6461 24.5858C11.8511 24.4052 16.7442 20.2123 21.292 24.5619ZM45.9009 24.7914C45.69 24.7914 45.4869 24.7089 45.3336 24.5614C40.7857 20.2123 35.8926 24.4052 35.6876 24.5858C35.605 24.6591 35.5093 24.7148 35.4053 24.7499C35.3565 24.7665 35.3067 24.7782 35.2559 24.7851C35.1988 24.7929 35.1407 24.7948 35.0831 24.7909C35.0137 24.786 34.9454 24.7719 34.8795 24.7499C34.8419 24.7372 34.8052 24.7216 34.7696 24.7035C34.6719 24.6537 34.5845 24.5849 34.5132 24.5009C34.4415 24.4169 34.3868 24.3192 34.3521 24.2138C34.3409 24.1796 34.3321 24.1449 34.3253 24.1103C34.3111 24.0365 34.3062 23.9608 34.3116 23.8857C34.3135 23.8568 34.317 23.828 34.3218 23.7997L34.335 23.7382C34.3497 23.6791 34.3707 23.6215 34.3975 23.5668C34.4463 23.4672 34.5142 23.3783 34.5967 23.3056C34.6583 23.2499 40.813 17.9233 46.4654 23.3266C46.5865 23.4423 46.6705 23.5927 46.7071 23.7582C46.7271 23.8495 46.732 23.9433 46.7222 24.0356C46.7139 24.1098 46.6963 24.183 46.669 24.2533C46.6075 24.4106 46.5015 24.5458 46.3638 24.641C46.2266 24.7362 46.064 24.7875 45.8975 24.788L45.9009 24.7914ZM22.6226 46.1537C24.7369 46.4882 26.8736 46.6557 29.0132 46.6547C30.7042 46.6571 32.3931 46.536 34.067 46.2929C42.1436 45.0854 48.2745 40.0995 50.4795 32.9565C50.5196 32.849 50.5377 32.7338 50.5328 32.6191C50.5294 32.5473 50.5171 32.476 50.4966 32.4076C50.4839 32.3666 50.4683 32.3266 50.4498 32.2875C50.4004 32.184 50.3306 32.0917 50.2447 32.0165C50.1587 31.9413 50.0591 31.8852 49.9512 31.8505C49.8868 31.83 49.8204 31.8178 49.753 31.8134C49.7076 31.8105 49.6622 31.8114 49.6168 31.8163C49.504 31.8285 49.3951 31.8637 49.2964 31.9198C49.2379 31.9535 49.1837 31.9936 49.1348 32.04C49.1016 32.0722 49.0704 32.1068 49.0425 32.144C49.0088 32.1889 48.9795 32.2367 48.9556 32.287C48.9302 32.3398 48.9107 32.3949 48.8965 32.4521C46.8965 38.9687 41.2681 43.5199 33.8516 44.6298C28.4048 45.4472 18.1431 44.9814 12.2623 40.3295C9.82086 38.4052 8.41558 35.9452 8.1109 33.0229C8.10308 32.9096 8.0733 32.7987 8.02252 32.6977C7.97174 32.5966 7.90191 32.5067 7.81646 32.4335C7.77691 32.3998 7.73443 32.37 7.69 32.3446C7.63775 32.3149 7.58257 32.2909 7.52496 32.2729C7.41802 32.2397 7.30572 32.2284 7.19488 32.2406C7.08404 32.2524 6.97613 32.287 6.87896 32.3422C6.78131 32.3974 6.69537 32.4716 6.62701 32.5614C6.55816 32.6508 6.50787 32.7538 6.47906 32.8637C6.46295 32.9252 6.45367 32.9887 6.45172 33.0526C6.45025 33.102 6.45269 33.1513 6.45953 33.2001C6.80132 36.5961 8.42584 39.4491 11.2466 41.6757C14.0196 43.8505 17.938 45.3988 22.6226 46.1537Z" fill="#231F20"/>
</svg>
