<svg width="83" height="25" viewBox="0 0 83 25" fill="none" xmlns="http://www.w3.org/2000/svg">
<path d="M15.77 10.342V19H14.21L14.132 16.686C13.6293 17.518 12.9187 18.1593 12 18.61C11.0987 19.0433 10.0067 19.26 8.724 19.26C7.112 19.26 5.708 18.9047 4.512 18.194C3.316 17.466 2.38867 16.4433 1.73 15.126C1.08867 13.7913 0.768 12.2227 0.768 10.42C0.768 8.63467 1.09733 7.07467 1.756 5.74C2.432 4.40533 3.368 3.38267 4.564 2.672C5.77733 1.944 7.18133 1.58 8.776 1.58C10.4747 1.58 11.87 1.90067 12.962 2.542C14.0713 3.18333 14.964 4.17133 15.64 5.506L13.742 6.546C13.3607 5.57533 12.7367 4.83 11.87 4.31C11.0207 3.79 9.98933 3.53 8.776 3.53C7.61467 3.53 6.592 3.80733 5.708 4.362C4.84133 4.91667 4.16533 5.714 3.68 6.754C3.19467 7.77667 2.952 8.99867 2.952 10.42C2.952 12.604 3.45467 14.3027 4.46 15.516C5.46533 16.712 6.91267 17.31 8.802 17.31C10.2927 17.31 11.506 16.9287 12.442 16.166C13.3953 15.4033 13.872 14.3113 13.872 12.89V12.292H8.412V10.342H15.77ZM21.2725 3.504C20.8045 3.504 20.4231 3.36533 20.1285 3.088C19.8511 2.79333 19.7125 2.412 19.7125 1.944C19.7125 1.476 19.8511 1.10333 20.1285 0.825998C20.4231 0.531332 20.8045 0.383999 21.2725 0.383999C21.7405 0.383999 22.1131 0.531332 22.3905 0.825998C22.6851 1.10333 22.8325 1.476 22.8325 1.944C22.8325 2.412 22.6851 2.79333 22.3905 3.088C22.1131 3.36533 21.7405 3.504 21.2725 3.504ZM22.3125 19H20.2325V6H22.3125V19ZM34.3927 17.336C35.6234 17.336 36.5854 17.6133 37.2787 18.168C37.972 18.7227 38.3187 19.4767 38.3187 20.43C38.3187 21.262 38.0327 21.99 37.4607 22.614C36.8887 23.2553 36.1087 23.7407 35.1207 24.07C34.15 24.4167 33.0754 24.59 31.8967 24.59C29.9207 24.59 28.43 24.2693 27.4247 23.628C26.4194 23.004 25.9167 22.1807 25.9167 21.158C25.9167 20.5687 26.116 20.0487 26.5147 19.598C26.9307 19.1473 27.494 18.8267 28.2047 18.636C27.6674 18.376 27.234 18.0467 26.9047 17.648C26.5927 17.2493 26.4367 16.7813 26.4367 16.244C26.4367 15.6027 26.61 15.074 26.9567 14.658C27.3034 14.2247 27.78 13.904 28.3867 13.696C27.7627 13.3147 27.286 12.8207 26.9567 12.214C26.6447 11.59 26.4887 10.8967 26.4887 10.134C26.4887 9.28467 26.714 8.53067 27.1647 7.872C27.6154 7.196 28.248 6.676 29.0627 6.312C29.8774 5.93067 30.796 5.74 31.8187 5.74C32.7894 5.74 33.6734 5.91333 34.4707 6.26C34.956 4.492 36.178 3.608 38.1367 3.608L38.6047 5.428C36.906 5.428 35.8747 5.90467 35.5107 6.858C36.0307 7.25667 36.4294 7.73333 36.7067 8.288C37.0014 8.84267 37.1487 9.458 37.1487 10.134C37.1487 10.9833 36.9234 11.746 36.4727 12.422C36.022 13.0807 35.3894 13.6007 34.5747 13.982C33.76 14.346 32.8414 14.528 31.8187 14.528C31.056 14.528 30.3887 14.45 29.8167 14.294C29.2967 14.4153 28.924 14.606 28.6987 14.866C28.4734 15.126 28.3607 15.4813 28.3607 15.932C28.3607 16.3827 28.5167 16.7293 28.8287 16.972C29.1407 17.2147 29.5567 17.336 30.0767 17.336H34.3927ZM31.8187 7.43C30.9174 7.43 30.1634 7.68133 29.5567 8.184C28.95 8.68667 28.6467 9.33667 28.6467 10.134C28.6467 10.9313 28.95 11.5813 29.5567 12.084C30.1634 12.5867 30.9174 12.838 31.8187 12.838C32.72 12.838 33.474 12.5867 34.0807 12.084C34.6874 11.5813 34.9907 10.9313 34.9907 10.134C34.9907 9.33667 34.6874 8.68667 34.0807 8.184C33.474 7.68133 32.72 7.43 31.8187 7.43ZM32.1307 22.848C33.448 22.848 34.488 22.6313 35.2507 22.198C36.0134 21.782 36.3947 21.2707 36.3947 20.664C36.3947 20.1613 36.1954 19.78 35.7967 19.52C35.4154 19.26 34.7567 19.13 33.8207 19.13H30.3367C29.5394 19.13 28.924 19.2687 28.4907 19.546C28.0574 19.8407 27.8407 20.2393 27.8407 20.742C27.8407 21.4007 28.2047 21.912 28.9327 22.276C29.6607 22.6573 30.7267 22.848 32.1307 22.848ZM45.8282 19.26C44.5802 19.26 43.4536 19.0173 42.4482 18.532C41.4429 18.0293 40.7062 17.2927 40.2382 16.322L41.9282 15.152C42.2229 15.9147 42.7342 16.4867 43.4622 16.868C44.1902 17.2493 45.0482 17.44 46.0362 17.44C47.0589 17.44 47.8389 17.258 48.3762 16.894C48.9136 16.53 49.1822 16.0707 49.1822 15.516C49.1822 15.0133 48.9309 14.6147 48.4282 14.32C47.9256 14.008 47.0416 13.7393 45.7762 13.514C44.5282 13.2887 43.5402 13.02 42.8122 12.708C42.0842 12.3787 41.5556 11.9713 41.2262 11.486C40.8969 10.9833 40.7322 10.368 40.7322 9.64C40.7322 8.92933 40.9402 8.27933 41.3562 7.69C41.7722 7.10067 42.3702 6.63267 43.1502 6.286C43.9302 5.922 44.8316 5.74 45.8542 5.74C47.2409 5.74 48.3502 6 49.1822 6.52C50.0316 7.02267 50.6382 7.80267 51.0022 8.86L49.2342 9.9C48.9569 9.068 48.5322 8.47 47.9602 8.106C47.4056 7.742 46.7036 7.56 45.8542 7.56C45.0049 7.56 44.2856 7.75067 43.6962 8.132C43.1069 8.51333 42.8122 8.95533 42.8122 9.458C42.8122 10.03 43.0636 10.472 43.5662 10.784C44.0862 11.096 45.0049 11.3647 46.3222 11.59C48.1249 11.8847 49.3989 12.3267 50.1442 12.916C50.8896 13.5053 51.2622 14.3373 51.2622 15.412C51.2622 16.1573 51.0369 16.8247 50.5862 17.414C50.1529 17.986 49.5202 18.4367 48.6882 18.766C47.8736 19.0953 46.9202 19.26 45.8282 19.26ZM60.6052 5.74C62.5638 5.74 64.0978 6.338 65.2072 7.534C66.3338 8.73 66.8972 10.3853 66.8972 12.5C66.8972 14.6147 66.3338 16.27 65.2072 17.466C64.0978 18.662 62.5638 19.26 60.6052 19.26C58.6465 19.26 57.1038 18.662 55.9772 17.466C54.8678 16.27 54.3132 14.6147 54.3132 12.5C54.3132 10.3853 54.8678 8.73 55.9772 7.534C57.1038 6.338 58.6465 5.74 60.6052 5.74ZM60.6052 7.534C59.2878 7.534 58.2565 7.976 57.5112 8.86C56.7658 9.744 56.3932 10.9573 56.3932 12.5C56.3932 14.0427 56.7658 15.256 57.5112 16.14C58.2565 17.024 59.2878 17.466 60.6052 17.466C61.9225 17.466 62.9538 17.024 63.6992 16.14C64.4445 15.256 64.8172 14.0427 64.8172 12.5C64.8172 10.9573 64.4445 9.744 63.6992 8.86C62.9538 7.976 61.9225 7.534 60.6052 7.534ZM77.2555 5.74C78.7289 5.74 79.9422 6.16467 80.8955 7.014C81.8489 7.86333 82.3255 9.08533 82.3255 10.68V19H80.2455V11.408C80.2455 10.056 79.9509 9.07667 79.3615 8.47C78.7895 7.86333 78.0182 7.56 77.0475 7.56C76.3542 7.56 75.7042 7.716 75.0975 8.028C74.4909 8.32267 73.9882 8.81667 73.5895 9.51C73.2082 10.186 73.0175 11.044 73.0175 12.084V19H70.9375V6H72.7575L72.8875 8.028C73.3209 7.248 73.9189 6.676 74.6815 6.312C75.4442 5.93067 76.3022 5.74 77.2555 5.74Z" fill="black"/>
</svg>
