<svg width="114" height="44" viewBox="0 0 114 44" fill="none" xmlns="http://www.w3.org/2000/svg">
<path d="M15.2 9.96819V18.3133H13.6964L13.6212 16.0829C13.1367 16.8848 12.4518 17.5029 11.5663 17.9373C10.6975 18.355 9.645 18.5639 8.40867 18.5639C6.85493 18.5639 5.50168 18.2214 4.34891 17.5364C3.19614 16.8347 2.30233 15.849 1.66746 14.5793C1.04931 13.2928 0.740234 11.7809 0.740234 10.0434C0.740234 8.32257 1.05766 6.81896 1.69252 5.53253C2.34409 4.2461 3.24626 3.2604 4.39903 2.57542C5.5685 1.87373 6.92176 1.52289 8.45879 1.52289C10.0961 1.52289 11.441 1.83197 12.4935 2.45012C13.5627 3.06827 14.4231 4.02056 15.0747 5.30699L13.2453 6.3094C12.8778 5.37381 12.2763 4.65542 11.441 4.15421C10.6224 3.65301 9.62826 3.40241 8.45879 3.40241C7.33943 3.40241 6.35373 3.66971 5.50168 4.20433C4.66634 4.73896 4.01477 5.50747 3.54698 6.50988C3.07919 7.49558 2.84529 8.67341 2.84529 10.0434C2.84529 12.1484 3.3298 13.7857 4.29879 14.9552C5.26778 16.1079 6.66281 16.6843 8.48385 16.6843C9.92067 16.6843 11.0901 16.3168 11.9923 15.5817C12.9111 14.8466 13.3706 13.794 13.3706 12.4241V11.8477H8.10794V9.96819H15.2ZM20.5036 3.37735C20.0525 3.37735 19.6849 3.24369 19.401 2.97638C19.1336 2.69236 19 2.32482 19 1.87373C19 1.42265 19.1336 1.06345 19.401 0.79614C19.6849 0.512125 20.0525 0.370117 20.5036 0.370117C20.9547 0.370117 21.3138 0.512125 21.5812 0.79614C21.8651 1.06345 22.0072 1.42265 22.0072 1.87373C22.0072 2.32482 21.8651 2.69236 21.5812 2.97638C21.3138 3.24369 20.9547 3.37735 20.5036 3.37735ZM21.506 18.3133H19.5012V5.78313H21.506V18.3133ZM33.1496 16.7094C34.3358 16.7094 35.263 16.9767 35.9313 17.5113C36.5995 18.046 36.9337 18.7727 36.9337 19.6916C36.9337 20.4935 36.658 21.1952 36.1067 21.7966C35.5554 22.4147 34.8036 22.8826 33.8513 23.2C32.9157 23.5342 31.8799 23.7012 30.7438 23.7012C28.8392 23.7012 27.4024 23.3921 26.4334 22.774C25.4645 22.1725 24.9799 21.379 24.9799 20.3933C24.9799 19.8253 25.172 19.324 25.5563 18.8896C25.9573 18.4552 26.5002 18.1462 27.1852 17.9624C26.6674 17.7118 26.2496 17.3944 25.9322 17.0101C25.6315 16.6258 25.4811 16.1747 25.4811 15.6569C25.4811 15.0387 25.6482 14.5292 25.9824 14.1282C26.3165 13.7106 26.7759 13.4014 27.3607 13.201C26.7592 12.8334 26.2997 12.3573 25.9824 11.7725C25.6816 11.1711 25.5313 10.5028 25.5313 9.76771C25.5313 8.94908 25.7484 8.22233 26.1828 7.58747C26.6172 6.9359 27.227 6.4347 28.0122 6.08385C28.7975 5.71631 29.6829 5.53253 30.6686 5.53253C31.6042 5.53253 32.4563 5.69959 33.2248 6.03373C33.6925 4.32964 34.8703 3.47759 36.7583 3.47759L37.2093 5.2318C35.572 5.2318 34.578 5.69125 34.2272 6.61012C34.7284 6.99438 35.1127 7.45381 35.3799 7.98843C35.664 8.52305 35.806 9.11614 35.806 9.76771C35.806 10.5863 35.5888 11.3214 35.1544 11.973C34.72 12.6079 34.1103 13.1091 33.325 13.4766C32.5397 13.8275 31.6544 14.0029 30.6686 14.0029C29.9335 14.0029 29.2903 13.9277 28.739 13.7773C28.2378 13.8943 27.8785 14.0781 27.6614 14.3287C27.4442 14.5793 27.3356 14.9217 27.3356 15.3561C27.3356 15.7906 27.486 16.1246 27.7867 16.3586C28.0874 16.5925 28.4884 16.7094 28.9896 16.7094H33.1496ZM30.6686 7.16144C29.7999 7.16144 29.0731 7.40369 28.4884 7.88819C27.9036 8.37269 27.6113 8.9992 27.6113 9.76771C27.6113 10.5362 27.9036 11.1627 28.4884 11.6472C29.0731 12.1318 29.7999 12.374 30.6686 12.374C31.5373 12.374 32.2641 12.1318 32.8489 11.6472C33.4336 11.1627 33.726 10.5362 33.726 9.76771C33.726 8.9992 33.4336 8.37269 32.8489 7.88819C32.2641 7.40369 31.5373 7.16144 30.6686 7.16144ZM30.9693 22.0222C32.239 22.0222 33.2414 21.8133 33.9766 21.3957C34.7117 20.9947 35.0792 20.5019 35.0792 19.9171C35.0792 19.4326 34.8871 19.0651 34.5028 18.8145C34.1353 18.5639 33.5004 18.4386 32.5983 18.4386H29.2402C28.4717 18.4386 27.8785 18.5722 27.4609 18.8395C27.0433 19.1236 26.8344 19.5078 26.8344 19.9923C26.8344 20.6272 27.1852 21.12 27.8869 21.4708C28.5886 21.8384 29.6161 22.0222 30.9693 22.0222ZM44.1717 18.5639C42.9689 18.5639 41.883 18.3299 40.9139 17.8622C39.945 17.3776 39.2349 16.6677 38.7838 15.732L40.4127 14.6043C40.6968 15.3395 41.1896 15.8908 41.8913 16.2583C42.593 16.6258 43.4199 16.8096 44.3722 16.8096C45.358 16.8096 46.1098 16.6342 46.6277 16.2834C47.1456 15.9325 47.4045 15.4898 47.4045 14.9552C47.4045 14.4706 47.1623 14.0865 46.6778 13.8024C46.1933 13.5017 45.3413 13.2427 44.1216 13.0255C42.9187 12.8084 41.9664 12.5494 41.2648 12.2487C40.5631 11.9313 40.0536 11.5386 39.7361 11.0708C39.4187 10.5863 39.2599 9.99325 39.2599 9.29156C39.2599 8.60658 39.4604 7.98007 39.8614 7.41205C40.2624 6.84402 40.8387 6.39293 41.5905 6.05879C42.3423 5.70795 43.2112 5.53253 44.1968 5.53253C45.5334 5.53253 46.6026 5.78313 47.4045 6.28433C48.2232 6.76884 48.8079 7.52064 49.1587 8.53976L47.4546 9.54217C47.1874 8.74024 46.778 8.16385 46.2267 7.81301C45.6921 7.46217 45.0155 7.28674 44.1968 7.28674C43.3782 7.28674 42.6849 7.47052 42.1168 7.83807C41.5488 8.20562 41.2648 8.63164 41.2648 9.11614C41.2648 9.66747 41.5071 10.0935 41.9915 10.3942C42.4927 10.6949 43.3782 10.9539 44.6479 11.1711C46.3854 11.4551 47.6134 11.8812 48.3317 12.4492C49.0502 13.0172 49.4093 13.8191 49.4093 14.8549C49.4093 15.5733 49.1922 16.2166 48.7578 16.7846C48.3401 17.3359 47.7303 17.7703 46.9284 18.0877C46.1432 18.4051 45.2243 18.5639 44.1717 18.5639ZM58.4146 5.53253C60.3024 5.53253 61.781 6.10891 62.8503 7.26168C63.9362 8.41446 64.4792 10.0099 64.4792 12.0482C64.4792 14.0865 63.9362 15.6819 62.8503 16.8347C61.781 17.9875 60.3024 18.5639 58.4146 18.5639C56.5267 18.5639 55.0398 17.9875 53.9539 16.8347C52.8846 15.6819 52.3501 14.0865 52.3501 12.0482C52.3501 10.0099 52.8846 8.41446 53.9539 7.26168C55.0398 6.10891 56.5267 5.53253 58.4146 5.53253ZM58.4146 7.26168C57.1449 7.26168 56.1508 7.68771 55.4325 8.53976C54.714 9.3918 54.3549 10.5613 54.3549 12.0482C54.3549 13.5351 54.714 14.7046 55.4325 15.5566C56.1508 16.4087 57.1449 16.8347 58.4146 16.8347C59.6843 16.8347 60.6783 16.4087 61.3968 15.5566C62.1152 14.7046 62.4744 13.5351 62.4744 12.0482C62.4744 10.5613 62.1152 9.3918 61.3968 8.53976C60.6783 7.68771 59.6843 7.26168 58.4146 7.26168ZM74.4631 5.53253C75.8833 5.53253 77.0527 5.94185 77.9716 6.76048C78.8905 7.57911 79.3499 8.75694 79.3499 10.294V18.3133H77.345V10.9957C77.345 9.69253 77.0611 8.7486 76.493 8.16385C75.9417 7.57911 75.1983 7.28674 74.2626 7.28674C73.5944 7.28674 72.9679 7.43711 72.3831 7.73783C71.7984 8.02185 71.3139 8.49799 70.9296 9.16626C70.5621 9.81783 70.3783 10.6448 70.3783 11.6472V18.3133H68.3735V5.78313H70.1277L70.253 7.73783C70.6707 6.98602 71.2471 6.4347 71.9822 6.08385C72.7173 5.71631 73.5443 5.53253 74.4631 5.53253Z" fill="#081321"/>
<path fill-rule="evenodd" clip-rule="evenodd" d="M29.8954 39.0098H32.5207C34.8925 39.0098 36.884 37.4845 36.884 34.3992C36.884 31.2965 34.9287 29.7365 32.5569 29.7365H29.8954V39.0098ZM32.575 40.5178H28.1211V28.2285H32.6112C35.8701 28.2285 38.7127 30.3605 38.7127 34.3992C38.7127 38.4205 35.8339 40.5178 32.575 40.5178ZM42.5329 35.4912H47.2946C47.2584 34.2952 46.4436 33.3592 44.9047 33.3592C43.4744 33.3592 42.6053 34.4165 42.5329 35.4912ZM47.548 37.6578L49.0146 38.1432C48.5257 39.6165 47.1316 40.7778 45.1038 40.7778C42.7683 40.7778 40.7224 39.1485 40.7224 36.3232C40.7224 33.7058 42.6958 31.9205 44.8866 31.9205C47.5661 31.9205 49.0689 33.6885 49.0689 36.2885C49.0689 36.4965 49.0508 36.7045 49.0327 36.8085H42.4786C42.5148 38.2992 43.6373 39.3392 45.1038 39.3392C46.516 39.3392 47.2221 38.5938 47.548 37.6578ZM58.9725 32.1805L55.4963 40.5178H53.7763L50.2457 32.1805H52.1649L54.6453 38.6112L57.1438 32.1805H58.9725ZM64.4402 33.4285C63.0642 33.4285 61.7969 34.3992 61.7969 36.3405C61.7969 38.2472 63.0461 39.2698 64.4584 39.2698C66.0878 39.2698 66.6853 38.2125 66.8845 37.5538L68.3872 38.1778C67.9708 39.3738 66.7215 40.7778 64.4584 40.7778C61.9236 40.7778 60.0588 38.8712 60.0588 36.3405C60.0588 33.7405 61.9598 31.9205 64.4402 31.9205C66.7577 31.9205 67.9527 33.3072 68.3148 34.5725L66.7758 35.1965C66.5586 34.3818 65.9249 33.4285 64.4402 33.4285ZM71.8453 35.4912H76.607C76.5708 34.2952 75.756 33.3592 74.2171 33.3592C72.7868 33.3592 71.9177 34.4165 71.8453 35.4912ZM76.8605 37.6578L78.327 38.1432C77.8381 39.6165 76.444 40.7778 74.4163 40.7778C72.0807 40.7778 70.0348 39.1485 70.0348 36.3232C70.0348 33.7058 72.0083 31.9205 74.199 31.9205C76.8786 31.9205 78.3813 33.6885 78.3813 36.2885C78.3813 36.4965 78.3632 36.7045 78.3451 36.8085H71.791C71.8272 38.2992 72.9497 39.3392 74.4163 39.3392C75.8285 39.3392 76.5346 38.5938 76.8605 37.6578ZM82.7085 35.6992V40.5178H81.0066V32.1805H82.6722V33.3765C83.3059 32.3365 84.3379 31.9378 85.3518 31.9378C87.4339 31.9378 88.4659 33.3765 88.4659 35.2312V40.5178H86.764V35.5085C86.764 34.3472 86.2571 33.4112 84.7362 33.4112C83.3965 33.4112 82.7085 34.4338 82.7085 35.6992ZM93.9156 29.5458V32.1805H95.7986V33.6538H93.9156V37.9872C93.9156 38.7498 94.2415 39.1312 95.1287 39.1312C95.3459 39.1312 95.6537 39.0965 95.7986 39.0618V40.4485C95.6537 40.5005 95.2192 40.6045 94.6398 40.6045C93.1552 40.6045 92.2137 39.7378 92.2137 38.2298V33.6538H90.548V32.1805H91.0188C91.9603 32.1805 92.3586 31.6258 92.3586 30.8978V29.5458H93.9156ZM99.5283 35.4912H104.29C104.254 34.2952 103.439 33.3592 101.9 33.3592C100.47 33.3592 99.6007 34.4165 99.5283 35.4912ZM104.543 37.6578L106.01 38.1432C105.521 39.6165 104.127 40.7778 102.099 40.7778C99.7636 40.7778 97.7177 39.1485 97.7177 36.3232C97.7177 33.7058 99.6912 31.9205 101.882 31.9205C104.562 31.9205 106.064 33.6885 106.064 36.2885C106.064 36.4965 106.046 36.7045 106.028 36.8085H99.4739C99.5101 38.2992 100.633 39.3392 102.099 39.3392C103.511 39.3392 104.218 38.5938 104.543 37.6578ZM113.524 32.0938V33.8272C113.27 33.7925 113.017 33.7752 112.781 33.7752C111.351 33.7752 110.391 34.5032 110.391 36.3405V40.5178H108.69V32.1805H110.355V33.6365C110.989 32.3538 112.075 32.0418 112.962 32.0418C113.198 32.0418 113.433 32.0765 113.524 32.0938Z" fill="#081321"/>
<circle cx="10.5" cy="34.5" r="9.5" fill="#26B2FE"/>
<path d="M6.73 37H5.8V29.76H6.73V32.87C6.85667 32.6367 7.05667 32.4433 7.33 32.29C7.61 32.13 7.94 32.05 8.32 32.05C9.02 32.05 9.56333 32.2867 9.95 32.76C10.3367 33.2333 10.53 33.8367 10.53 34.57C10.53 35.31 10.33 35.9233 9.93 36.41C9.53 36.89 8.98333 37.13 8.29 37.13C7.57 37.13 7.05 36.8533 6.73 36.3V37ZM9.18 35.82C9.44 35.5067 9.57 35.09 9.57 34.57C9.57 34.05 9.44 33.64 9.18 33.34C8.92667 33.0333 8.58333 32.88 8.15 32.88C7.73 32.88 7.38667 33.0333 7.12 33.34C6.85333 33.6467 6.72 34.0567 6.72 34.57C6.72 35.0833 6.85333 35.5 7.12 35.82C7.38667 36.1333 7.73 36.29 8.15 36.29C8.57667 36.29 8.92 36.1333 9.18 35.82ZM12.7324 39.01H11.7024L12.9024 36.47L10.8324 32.19H11.9124L13.4124 35.51L14.8524 32.19H15.8624L12.7324 39.01Z" fill="white"/>
</svg>
