<svg width="22" height="22" viewBox="0 0 22 22" fill="none" xmlns="http://www.w3.org/2000/svg">
<path fill-rule="evenodd" clip-rule="evenodd" d="M11 0C10.7348 0 10.4804 0.105357 10.2929 0.292893C10.1054 0.48043 10 0.734784 10 1V11C10 11.5523 10.4477 12 11 12H21C21.5523 12 22 11.5523 22 11C22 9.55546 21.7155 8.12506 21.1627 6.79048C20.6099 5.4559 19.7996 4.24327 18.7782 3.22183C17.7567 2.20038 16.5441 1.39013 15.2095 0.837325C13.8749 0.284523 12.4445 0 11 0ZM12 10V2.05573C12.8386 2.14949 13.6615 2.3609 14.4442 2.68508C15.5361 3.13738 16.5282 3.80031 17.364 4.63604C18.1997 5.47177 18.8626 6.46392 19.3149 7.55585C19.6391 8.33849 19.8505 9.16141 19.9443 10H12ZM7.40036 2.74661C7.90655 2.52572 8.13783 1.93631 7.91694 1.43012C7.69604 0.923931 7.10663 0.692654 6.60044 0.913545C4.95361 1.63219 3.5079 2.74332 2.38969 4.14978C1.27149 5.55624 0.514841 7.2152 0.185901 8.98164C-0.143039 10.7481 -0.034255 12.5682 0.502742 14.2829C1.03974 15.9976 1.9886 17.5546 3.26637 18.8179C4.54413 20.0811 6.1119 21.0121 7.8326 21.5295C9.55331 22.0469 11.3746 22.1349 13.1371 21.7858C14.8997 21.4367 16.5499 20.6612 17.9435 19.527C19.3371 18.3928 20.4316 16.9345 21.1314 15.2795C21.3465 14.7709 21.1085 14.1841 20.5999 13.969C20.0912 13.7539 19.5045 13.9919 19.2894 14.5006C18.7168 15.8546 17.8213 17.0478 16.6811 17.9758C15.5408 18.9038 14.1907 19.5383 12.7486 19.8239C11.3065 20.1095 9.81634 20.0375 8.40849 19.6142C7.00065 19.1909 5.71793 18.4292 4.67248 17.3956C3.62704 16.362 2.8507 15.0881 2.41133 13.6852C1.97197 12.2822 1.88297 10.793 2.1521 9.34778C2.42123 7.90251 3.04031 6.54518 3.9552 5.39444C4.8701 4.2437 6.05296 3.3346 7.40036 2.74661Z" fill="#9F7AEA"/>
</svg>
