<svg width="58" height="59" viewBox="0 0 58 59" fill="none" xmlns="http://www.w3.org/2000/svg">
<path fill-rule="evenodd" clip-rule="evenodd" d="M12.8886 53.1176C17.6576 56.3041 23.2641 58.0048 28.9999 58.0048C36.6884 57.9955 44.0595 54.9374 49.496 49.5009C54.9325 44.0644 57.9906 36.6933 57.9999 29.0048C57.9999 23.269 56.2992 17.6625 53.1127 12.8935C49.9262 8.12442 45.3969 4.40714 40.0976 2.21231C34.7987 0.0174893 28.9677 -0.556729 23.3422 0.561923C17.7167 1.68106 12.5497 4.44278 8.49405 8.49893C4.4379 12.5546 1.67618 17.7216 0.55704 23.3471C-0.561612 28.9726 0.0126065 34.8036 2.20743 40.1025C4.40226 45.4018 8.11954 49.9311 12.8886 53.1176ZM13.8261 6.29532C18.3173 3.29434 23.5981 1.69229 28.9999 1.69229C36.2416 1.69718 43.1845 4.57755 48.3051 9.69864C53.4252 14.8197 56.3051 21.7631 56.3124 29.0048C56.3124 34.4067 54.7104 39.6874 51.7094 44.1786C48.7084 48.6703 44.4428 52.1713 39.4521 54.2382C34.4613 56.3056 28.9696 56.8466 23.6713 55.7924C18.3734 54.7387 13.5067 52.1376 9.68692 48.3178C5.8671 44.498 3.26602 39.6313 2.21231 34.3334C1.15811 29.0351 1.69913 23.5434 3.76651 18.5526C5.83341 13.5619 9.33438 9.2963 13.8261 6.29532ZM14.1464 29.4735C14.8681 29.956 15.7172 30.2133 16.5858 30.2133C17.7499 30.2123 18.8661 29.7494 19.6894 28.9262C20.5126 28.1029 20.9755 26.9867 20.9765 25.8227C20.9765 24.954 20.7191 24.1049 20.2367 23.3832C19.7538 22.661 19.0683 22.0981 18.266 21.766C17.4638 21.4335 16.581 21.3466 15.7289 21.516C14.8774 21.6855 14.0946 22.1034 13.4809 22.7177C12.8666 23.3315 12.4486 24.1142 12.2792 24.9657C12.1098 25.8178 12.1967 26.7006 12.5292 27.5028C12.8612 28.3051 13.4242 28.9906 14.1464 29.4735ZM15.0839 23.5746C15.5282 23.2777 16.0507 23.1191 16.5858 23.1191C17.3022 23.1225 17.9892 23.4066 18.496 23.913C19.0028 24.4193 19.288 25.1059 19.289 25.8227C19.289 26.3573 19.1303 26.8798 18.8334 27.3246C18.6405 27.6132 18.3954 27.8603 18.1112 28.0541C17.9579 28.1591 17.7934 28.2484 17.62 28.3202C17.1264 28.5248 16.5824 28.578 16.058 28.474C15.5336 28.3695 15.0522 28.1122 14.6742 27.7338C14.2958 27.3559 14.0385 26.8744 13.934 26.35C13.83 25.8256 13.8832 25.2816 14.0878 24.788C14.1327 24.6796 14.1845 24.5746 14.2426 24.474C14.2983 24.3769 14.3598 24.2836 14.4267 24.1947C14.6083 23.954 14.83 23.7441 15.0839 23.5746ZM40.4945 30.1181C40.3153 30.0805 40.1391 30.0316 39.9662 29.9716C39.6142 29.8495 39.2773 29.6825 38.9643 29.4735C38.4672 29.141 38.0458 28.7128 37.7231 28.2167C37.5766 27.9916 37.4506 27.7528 37.3471 27.5028C37.0146 26.7006 36.9276 25.8178 37.0971 24.9657C37.2665 24.1142 37.6845 23.3315 38.2987 22.7177C38.9125 22.1034 39.6952 21.6855 40.5468 21.516C41.3988 21.3466 42.2817 21.4335 43.0839 21.766C43.8861 22.0981 44.5717 22.661 45.0546 23.3832C45.537 24.1049 45.7943 24.954 45.7943 25.8227C45.7934 26.9867 45.3305 28.1029 44.5072 28.9262C43.684 29.7494 42.5678 30.2123 41.4037 30.2133C41.0966 30.2133 40.7919 30.1811 40.4945 30.1181ZM41.4037 23.1191C40.8686 23.1191 40.3461 23.2777 39.9018 23.5746C39.4569 23.8715 39.1103 24.2939 38.9057 24.788C38.7699 25.1151 38.7011 25.4648 38.7001 25.8158C38.6996 25.9945 38.7167 26.1733 38.7519 26.35C38.767 26.4262 38.7856 26.5014 38.807 26.5756C38.87 26.7934 38.9604 27.0014 39.0746 27.1957C39.1899 27.391 39.33 27.5717 39.4921 27.7338C39.87 28.1122 40.3515 28.3695 40.8759 28.474C41.4003 28.578 41.9442 28.5248 42.4379 28.3202C42.767 28.184 43.0644 27.9848 43.3139 27.7353C43.4389 27.6103 43.5522 27.4731 43.6513 27.3246C43.9482 26.8798 44.1068 26.3573 44.1068 25.8227C44.1059 25.1059 43.8207 24.4193 43.3139 23.913C42.807 23.4066 42.12 23.1225 41.4037 23.1191ZM5.77872 23.3896C5.92765 23.5067 6.11124 23.5707 6.30069 23.5712C6.42911 23.5692 6.55509 23.5385 6.66983 23.4804C11.4423 21.0785 16.4579 19.1923 21.6308 17.8544C21.6962 17.8402 21.7597 17.8183 21.8197 17.7895C21.8437 17.7782 21.8671 17.7655 21.89 17.7519L21.9408 17.7182C21.9794 17.6908 22.0155 17.6606 22.0492 17.6274C22.0961 17.5805 22.1376 17.5282 22.1723 17.4716C22.1913 17.4403 22.2084 17.4081 22.2235 17.3754L22.2377 17.3417C22.2621 17.2816 22.2792 17.2182 22.2885 17.1537C22.2963 17.1034 22.2992 17.0522 22.2978 17.0014C22.2958 16.9389 22.287 16.8764 22.2709 16.8153C22.265 16.7943 22.2592 16.7738 22.2519 16.7533L22.2377 16.7148C22.2226 16.6767 22.205 16.6396 22.1845 16.6044L22.1703 16.5805L22.1542 16.5566L22.122 16.5116C22.0522 16.4213 21.9652 16.3461 21.8656 16.2904C21.8207 16.2655 21.7738 16.2445 21.726 16.2279C21.6669 16.2079 21.6059 16.1942 21.5434 16.1874C21.4296 16.1752 21.3153 16.1859 21.206 16.2191C15.9189 17.5883 10.7929 19.5175 5.91446 21.974C5.74601 22.0609 5.61173 22.2016 5.53311 22.3739C5.45401 22.5463 5.43546 22.7401 5.48038 22.9242C5.52481 23.1083 5.62979 23.2724 5.77872 23.3896ZM51.6317 23.5683C51.6068 23.5663 51.5819 23.5629 51.5575 23.5585C51.476 23.5443 51.3969 23.518 51.3227 23.4804C46.5502 21.078 41.5346 19.1923 36.3617 17.8544C36.2504 17.8305 36.1449 17.7841 36.0517 17.7182C35.9584 17.6527 35.8798 17.5688 35.8197 17.4716C35.7602 17.3744 35.7206 17.2665 35.7035 17.1537C35.6869 17.0409 35.6928 16.9257 35.7216 16.8153C35.7323 16.7729 35.7465 16.7314 35.7641 16.6913L35.7895 16.6381C35.8124 16.5937 35.8398 16.5517 35.8705 16.5116C35.9399 16.4213 36.0273 16.3461 36.1264 16.2904C36.226 16.2348 36.3358 16.1996 36.4491 16.1874C36.5624 16.1752 36.6772 16.1859 36.786 16.2191C42.0712 17.5888 47.1947 19.5175 52.0707 21.974C52.2406 22.0595 52.3764 22.1996 52.4569 22.372C52.537 22.5443 52.5566 22.7392 52.5131 22.9237C52.4692 23.1088 52.3642 23.2738 52.2152 23.392C52.0658 23.5097 51.8817 23.5741 51.6913 23.5746L51.7021 23.5712C51.6786 23.5712 51.6552 23.5702 51.6317 23.5683ZM48.0873 41.7963C48.1298 41.8026 48.1728 41.8061 48.2162 41.8061L48.2196 41.7992C48.3861 41.7983 48.5483 41.748 48.6864 41.6547C48.769 41.599 48.8407 41.5292 48.8988 41.4491C48.9374 41.3959 48.9696 41.3378 48.995 41.2763C49.059 41.1225 49.0756 40.9535 49.0434 40.7904C49.0111 40.6269 48.9316 40.477 48.8144 40.3588C47.3788 38.9897 45.7025 37.8974 43.8705 37.1371C39.518 35.1952 34.3891 34.3188 28.182 34.4648C20.6215 34.6386 14.265 36.3051 9.33145 39.4228C9.14884 39.5453 9.02091 39.7343 8.9755 39.9496C8.9296 40.165 8.96964 40.3896 9.08731 40.5756C9.2045 40.7616 9.38956 40.8949 9.60343 40.9467C9.81729 40.9984 10.0429 40.9648 10.2323 40.8529C14.9154 37.892 20.9696 36.3192 28.2309 36.1523C34.1772 36.0165 39.0727 36.8412 43.1918 38.6781C44.831 39.3593 46.3315 40.3358 47.6176 41.559C47.6962 41.6376 47.7895 41.7001 47.892 41.7426C47.955 41.7685 48.0204 41.7865 48.0873 41.7963Z" fill="black"/>
</svg>
